<?xml version="1.0" encoding="utf-8"?>
<!-- Generator: Adobe Illustrator 25.0.0, SVG Export Plug-In . SVG Version: 6.00 Build 0)  -->
<svg version="1.1" id="Capa_1" xmlns="http://www.w3.org/2000/svg" xmlns:xlink="http://www.w3.org/1999/xlink" x="0px" y="0px"
	 viewBox="0 0 512 512" style="enable-background:new 0 0 512 512;" xml:space="preserve">
<style type="text/css">
	.st0{fill:url(#SVGID_1_);}
	.st1{fill:url(#SVGID_2_);}
	.st2{fill:url(#SVGID_3_);}
	.st3{fill:url(#SVGID_4_);}
</style>
<g>
	
		<linearGradient id="SVGID_1_" gradientUnits="userSpaceOnUse" x1="255.9834" y1="995.9959" x2="255.9834" y2="565.8" gradientTransform="matrix(1.0003 0 0 1.0003 0.4265 -565.9948)">
		<stop  offset="0" style="stop-color:#0065C3"/>
		<stop  offset="1" style="stop-color:#31D8FF"/>
	</linearGradient>
	<path class="st0" d="M451,215.6c-1.9-3.6-1.9-7.8,0-11.4l6.3-11.9c9.7-18.3,4.4-41.4-12.3-53.7l-10.8-8c-3.3-2.4-5.1-6.2-4.9-10.3
		l0.5-13.5c0.8-20.7-14-39.2-34.3-43.1l-13.2-2.5c-4-0.7-7.3-3.4-8.9-7.1L368,41.8c-8.3-19-29.6-29.3-49.6-23.9l-13,3.5
		c-3.9,1-8.1,0.1-11.1-2.5l-10.2-8.8c-15.7-13.5-39.4-13.5-55.1,0l-10.2,8.8c-3.1,2.6-7.2,3.6-11.1,2.5l-13-3.5
		c-20-5.4-41.3,4.9-49.6,23.9l-5.4,12.4c-1.6,3.7-4.9,6.4-8.9,7.1l-13.4,2.5C97,67.6,82.3,86.2,83.1,106.9l0.5,13.5
		c0.2,4-1.7,7.9-4.9,10.3l-10.8,8c-16.7,12.3-22,35.4-12.3,53.7l6.3,11.9c1.9,3.6,1.9,7.8,0,11.4l-6.3,11.9
		c-9.7,18.3-4.4,41.4,12.3,53.7l10.8,8c3.2,2.4,5.1,6.2,4.9,10.3l-0.5,13.5c-0.8,20.7,14,39.2,34.3,43.1l6.9,1.3l1,32.1l74,37.6
		l32.1-15.2c7.4,5.4,16.1,8.1,24.9,8.1c8.6,0,17.3-2.6,24.6-7.8l26.4,18l74-37.8l6.6-34.8l7.4-1.4c20.4-3.8,35.1-22.4,34.3-43.1
		l-0.5-13.5c-0.2-4,1.7-7.9,4.9-10.3l10.8-8c16.7-12.3,22-35.4,12.3-53.7L451,215.6z"/>
	<g>
		<g>
			
				<linearGradient id="SVGID_2_" gradientUnits="userSpaceOnUse" x1="255.9335" y1="1077.7714" x2="255.9335" y2="640.7025" gradientTransform="matrix(1.0003 0 0 1.0003 0.4265 -565.9948)">
				<stop  offset="0" style="stop-color:#ADDCFF"/>
				<stop  offset="1" style="stop-color:#E8ECFF"/>
			</linearGradient>
			<path class="st1" d="M391.6,209.9c0-74.5-60.6-135-135-135s-135,60.6-135,135s60.6,135,135,135S391.6,284.4,391.6,209.9z
				 M206.5,256 M218.9,400.9c-3.1-2.6-7.2-3.6-11.1-2.5l-13,3.5c-20,5.4-41.3-4.9-49.6-23.9l-5.4-12.3c-1.6-3.7-4.9-6.4-8.9-7.1
				l-6.3-1.2l-47.8,86.4c-2.7,4.8-2.5,10.7,0.5,15.3c2.9,4.6,8.2,7.3,13.6,6.9l43.9-2.8l19.6,40.4c2.4,5.1,7.5,8.3,13.1,8.5
				c0.1,0,0.3,0,0.4,0c5.5,0,10.5-3,13.2-7.8l50.7-92.5c-0.9-0.7-1.8-1.3-2.6-2.1L218.9,400.9z M436,443.7l-47.8-86.3l-5.9,1.1
				c-4,0.7-7.3,3.4-8.9,7.1l-5.4,12.3c-6.8,15.6-22.4,25.3-38.8,25.3c-3.6,0-7.2-0.5-10.8-1.4l-13-3.5c-3.9-1-8.1-0.1-11.1,2.5
				l-10.2,8.8c-1,0.8-1.9,1.6-3,2.3l50.6,92.2c2.6,4.8,7.7,7.8,13.2,7.8c0.1,0,0.3,0,0.4,0c5.6-0.1,10.7-3.4,13.1-8.5L378,463
				l43.9,2.8c5.5,0.4,10.7-2.3,13.6-6.9C438.5,454.4,438.7,448.5,436,443.7L436,443.7z"/>
		</g>
	</g>
</g>
<g>
	<g>
		<linearGradient id="SVGID_3_" gradientUnits="userSpaceOnUse" x1="186.4106" y1="210.6943" x2="330.7646" y2="210.6943">
			<stop  offset="0" style="stop-color:#0065C3"/>
			<stop  offset="1" style="stop-color:#31D8FF"/>
		</linearGradient>
		<path class="st2" d="M247.7,175.9v69.6h-15.5V217h-30.4v28.5h-15.5v-69.6h15.5v27.4h30.4v-27.4H247.7z"/>
		<linearGradient id="SVGID_4_" gradientUnits="userSpaceOnUse" x1="186.4106" y1="210.6943" x2="330.7646" y2="210.6943">
			<stop  offset="0" style="stop-color:#0065C3"/>
			<stop  offset="1" style="stop-color:#31D8FF"/>
		</linearGradient>
		<path class="st3" d="M263.6,175.9h30.4c7.3,0,13.7,1.4,19.2,4.3s9.9,6.9,13,12.2c3.1,5.2,4.6,11.3,4.6,18.3s-1.5,13.1-4.6,18.3
			c-3.1,5.2-7.4,9.3-13,12.2c-5.6,2.9-12,4.3-19.2,4.3h-30.4V175.9z M293.1,232.3c6.7,0,12-1.9,16-5.8c4-3.9,6-9.1,6-15.8
			c0-6.6-2-11.9-6-15.8c-4-3.9-9.3-5.8-16-5.8H279v43.1H293.1z"/>
	</g>
</g>
</svg>
