<?xml version="1.0" encoding="utf-8"?>
<!-- Generator: Adobe Illustrator 25.0.0, SVG Export Plug-In . SVG Version: 6.00 Build 0)  -->
<svg version="1.1" id="Capa_1" xmlns="http://www.w3.org/2000/svg" xmlns:xlink="http://www.w3.org/1999/xlink" x="0px" y="0px"
	 viewBox="0 0 512 512" style="enable-background:new 0 0 512 512;" xml:space="preserve">
<style type="text/css">
	.st0{fill:url(#SVGID_1_);}
	.st1{fill:url(#SVGID_2_);}
</style>
<g>
	<g>
		<g>
			
				<linearGradient id="SVGID_1_" gradientUnits="userSpaceOnUse" x1="256" y1="2" x2="256" y2="513.9998" gradientTransform="matrix(1 0 0 -1 0 514)">
				<stop  offset="0" style="stop-color:#0065C3"/>
				<stop  offset="1" style="stop-color:#31D8FF"/>
			</linearGradient>
			<path class="st0" d="M436,81.6c-83,0-169.1-77-169.9-77.7c-5.7-5.2-14.4-5.2-20.2,0C245.1,4.7,159.2,81.6,76,81.6
				c-8.3,0-15,6.7-15,15v179.6C61,421.8,169.2,479.9,250.6,511c1.7,0.7,3.5,1,5.4,1c1.8,0,3.6-0.3,5.4-1
				C375.5,467.4,451,399.5,451,276.3V96.6C451,88.3,444.3,81.6,436,81.6z"/>
		</g>
	</g>
	<g>
		<g>
			
				<linearGradient id="SVGID_2_" gradientUnits="userSpaceOnUse" x1="256" y1="153" x2="256" y2="363" gradientTransform="matrix(1 0 0 -1 0 514)">
				<stop  offset="0" style="stop-color:#ADDCFF"/>
				<stop  offset="0.9973" style="stop-color:#E8ECFF"/>
			</linearGradient>
			<path class="st1" d="M256,151c-57.9,0-105,47.1-105,105s47.1,105,105,105s105-47.1,105-105S313.9,151,256,151z M296.6,251.6
				l-45,45c-2.9,2.9-6.8,4.4-10.6,4.4s-7.7-1.5-10.6-4.4l-15-15c-5.9-5.9-5.9-15.4,0-21.2c5.9-5.9,15.4-5.9,21.2,0l4.4,4.4
				l34.4-34.4c5.9-5.9,15.4-5.9,21.2,0C302.5,236.3,302.5,245.7,296.6,251.6z"/>
		</g>
	</g>
</g>
</svg>
